<svg xmlns="http://www.w3.org/2000/svg" xmlns:xlink="http://www.w3.org/1999/xlink" width="135" height="135" viewBox="0 0 135 135">
  <defs>
    <clipPath id="clip-path">
      <rect id="Rectangle_2853" data-name="Rectangle 2853" width="101.213" height="99.525" fill="#464646" stroke="#747070" stroke-width="1"/>
    </clipPath>
    <clipPath id="clip-New_Orders">
      <rect width="135" height="135"/>
    </clipPath>
  </defs>
  <g id="New_Orders" data-name="New Orders" clip-path="url(#clip-New_Orders)">
    <g id="Group_6044" data-name="Group 6044" transform="translate(4152.713 -23037.457)">
      <g id="Group_5984" data-name="Group 5984" transform="translate(-4145.426 23054.51)">
        <g id="Group_5983" data-name="Group 5983" transform="translate(0 0)">
          <g id="Group_5766" data-name="Group 5766" transform="translate(0 0)">
            <g id="Group_5763" data-name="Group 5763" transform="translate(0 0)">
              <g id="Group_5762" data-name="Group 5762" clip-path="url(#clip-path)">
                <path id="Path_8578" data-name="Path 8578" d="M1.25,30.365v-19.1L51.2,27.325,98.2,11.269V68.632L51.2,89.472,38.558,84.2" transform="translate(0.879 7.924)" fill="none" stroke="#747070" stroke-linecap="round" stroke-linejoin="round" stroke-width="2.5"/>
                <path id="Path_8579" data-name="Path 8579" d="M1.25,18.314,49.727,1.25,98.2,18.314" transform="translate(0.879 0.879)" fill="none" stroke="#747070" stroke-linecap="round" stroke-linejoin="round" stroke-width="2.5"/>
              </g>
            </g>
            <line id="Line_13" data-name="Line 13" y1="16.892" x2="46.899" transform="translate(25.985 9.97)" fill="none" stroke="#747070" stroke-linecap="round" stroke-linejoin="round" stroke-width="2.5"/>
            <g id="Group_5765" data-name="Group 5765" transform="translate(0 0)">
              <g id="Group_5764" data-name="Group 5764" clip-path="url(#clip-path)">
                <line id="Line_14" data-name="Line 14" x2="41.048" y2="20.743" transform="translate(4.382 74.239)" fill="none" stroke="#747070" stroke-linecap="round" stroke-linejoin="round" stroke-width="2.5"/>
                <line id="Line_15" data-name="Line 15" y2="62.147" transform="translate(52.075 35.249)" fill="none" stroke="#747070" stroke-linecap="round" stroke-linejoin="round" stroke-width="2.5"/>
                <line id="Line_16" data-name="Line 16" y2="45.904" transform="translate(2.129 27.221)" fill="none" stroke="#747070" stroke-linecap="round" stroke-linejoin="round" stroke-width="2.5"/>
              </g>
            </g>
          </g>
        </g>
        <path id="Path_8668" data-name="Path 8668" d="M17.906,0A17.906,17.906,0,1,1,0,17.906,17.906,17.906,0,0,1,17.906,0Z" transform="translate(84.712 60.553)" fill="#747070"/>
        <text id="_" data-name="+" transform="translate(89.978 87.815)" fill="#fff" font-size="42" font-family="HelveticaNeueLTPro-Roman, Helvetica Neue LT Pro"><tspan x="0" y="0">+</tspan></text>
      </g>
    </g>
  </g>
</svg>
