<svg xmlns="http://www.w3.org/2000/svg" xmlns:xlink="http://www.w3.org/1999/xlink" width="135" height="135" viewBox="0 0 135 135">
  <defs>
    <clipPath id="clip-Pending">
      <rect width="135" height="135"/>
    </clipPath>
  </defs>
  <g id="Pending" clip-path="url(#clip-Pending)">
    <g id="Group_5985" data-name="Group 5985" transform="translate(-1023.834 -208.551)">
      <path id="Path_8580" data-name="Path 8580" d="M.344,219.686c-.01-1.178.011-2.359-.044-3.535-.025-.537.179-.665.657-.665,3.314,0,6.629-.012,9.944-.012q20.275,0,40.55.007c1.785,0,3.57.071,5.355.068,1.067,0,2.133-.087,3.2-.068.373.007.519.1.508.5-.035,1.233-.028,2.467-.037,3.7Z" transform="translate(1062.646 105.865)" fill="#747070"/>
      <path id="Path_8581" data-name="Path 8581" d="M60.312,0c0,.726.459,3.624-.122,4.089-.619.5-3,.036-3.772.042-2.771.022-5.542.071-8.313.061q-8.985-.034-17.968-.009-8.708.028-17.416,0Q8.3,4.167,3.874,4.148C3.13,4.146.867,4.557.259,4-.268,3.513.173.722.178,0Z" transform="translate(1062.812 226.063)" fill="#747070"/>
      <path id="Path_8582" data-name="Path 8582" d="M35.576,101.084H10.488c-.856,0-.893-.057-.825-.917.088-1.1.031-2.208.022-3.313-.014-1.58-.028-3.162.016-4.741.025-.924-.091-1.838-.077-2.759.035-2.375-.026-4.755.106-7.124a18.8,18.8,0,0,1,1.979-7.309A37.255,37.255,0,0,1,20.56,64a55.157,55.157,0,0,0,4.9-4.7,4.68,4.68,0,0,0,.367-.484,2.071,2.071,0,0,0,.087-2.473,11.177,11.177,0,0,0-1.669-1.907c-2.484-2.384-5.139-4.59-7.448-7.155a30.189,30.189,0,0,1-4.983-7,19.375,19.375,0,0,1-2.1-8.227q-.059-5.162-.064-10.324c0-2.392.05-4.784.05-7.176,0-.5.15-.664.66-.663q25.254.017,50.508,0c.5,0,.665.142.663.654-.015,6.024.042,12.048-.036,18.07A17.345,17.345,0,0,1,59.8,39.436a31.558,31.558,0,0,1-6.48,9.015c-1.991,2.049-4.187,3.88-6.249,5.854a12.347,12.347,0,0,0-1.613,1.813,2.149,2.149,0,0,0,.011,2.753,17.782,17.782,0,0,0,2.022,2.186c2.284,2.193,4.74,4.206,6.868,6.563a30.421,30.421,0,0,1,5.514,8.091A18.337,18.337,0,0,1,61.517,83.1q.011,8.064,0,16.129c0,.349.018.7.043,1.047.051.7-.044.81-.733.81H35.576m.037-4.26v0q10.527,0,21.054,0c.423,0,.724,0,.722-.6-.021-4.218-.026-8.436.007-12.654a15.787,15.787,0,0,0-2.133-7.9,35.79,35.79,0,0,0-7.153-8.432,65.331,65.331,0,0,1-5.442-5.253A6.549,6.549,0,0,1,40.9,56.5a7.76,7.76,0,0,1,1.857-3.593A53.053,53.053,0,0,1,47.645,48.2a40.544,40.544,0,0,0,7.174-8.139,15.637,15.637,0,0,0,2.552-8.171c.027-4.384-.005-8.768,0-13.152,0-.428-.133-.621-.569-.58-.164.016-.331,0-.5,0H14.586c-.724,0-.731,0-.732.737,0,4.015.039,8.031-.017,12.046A17.135,17.135,0,0,0,17.1,41.122a50.707,50.707,0,0,0,7.875,8.332,33.435,33.435,0,0,1,4.089,4.179,5.968,5.968,0,0,1,1.257,4.976,7.64,7.64,0,0,1-1.785,3.382,84.156,84.156,0,0,1-6.1,5.923,38.748,38.748,0,0,0-5.773,6.593,16.009,16.009,0,0,0-2.815,8.648c-.01,4.255,0,8.51.008,12.765,0,.9.008.9.92.9q10.416,0,20.833,0" transform="translate(1057.445 218.309)" fill="#747070"/>
      <path id="Path_8583" data-name="Path 8583" d="M43.4,165.7q-9.559,0-19.119.007c-.427,0-.553-.093-.544-.56.042-2.062.114-4.13.007-6.187a7.424,7.424,0,0,1,2.261-5.615,35.991,35.991,0,0,1,6.64-5.287c2.465-1.648,5.068-3.08,7.514-4.758a28.863,28.863,0,0,0,3.046-2.284c.179-.161.331-.206.527-.038A76.973,76.973,0,0,0,52.658,147a41.667,41.667,0,0,1,8.233,6.286,7.734,7.734,0,0,1,2.243,4.162,4.888,4.888,0,0,1,.064.713q.008,3.341,0,6.682c0,.863-.009.869-.9.869q-9.448,0-18.9,0Z" transform="translate(1049.57 147.475)" fill="#747070"/>
      <path id="Path_8584" data-name="Path 8584" d="M63.195,52.2C62.41,58.6,56.2,63.354,51.581,67.161c-1.315,1.083-2.641,2.154-3.933,3.266s-2.4,2.475-3.683,3.558c-.729.615-.819.118-1.483-.562-.517-.529-1.049-1.043-1.59-1.546-1.352-1.258-2.769-2.444-4.19-3.623C31.973,64.331,25.77,59.9,24.072,53.668c-.082-.3-.567-1.465-.215-1.752.33-.27,1.571.557,1.855.682,1.7.748,3.412,1.486,5.133,2.194a79.675,79.675,0,0,0,9.861,3.526c3.851,1.015,7.456-.482,11.054-1.81,3.716-1.372,7.376-2.928,10.979-4.572.434-.2.474.037.455.265" transform="translate(1049.574 197.135)" fill="#747070"/>
    </g>
  </g>
</svg>
