<svg xmlns="http://www.w3.org/2000/svg" xmlns:xlink="http://www.w3.org/1999/xlink" width="28" height="30" viewBox="0 0 28 30">
  <defs>
    <clipPath id="clip-path">
      <rect id="Rectangle_2865" data-name="Rectangle 2865" width="26.798" height="23.168" fill="#fff"/>
    </clipPath>
    <clipPath id="clip-Dashboard">
      <rect width="28" height="30"/>
    </clipPath>
  </defs>
  <g id="Dashboard" clip-path="url(#clip-Dashboard)">
    <g id="Group_5814" data-name="Group 5814" transform="translate(0.365 4.165)">
      <g id="Group_5813" data-name="Group 5813" clip-path="url(#clip-path)">
        <path id="Path_8596" data-name="Path 8596" d="M13.382,23.168H2.91c-.376,0-.377,0-.377-.374q0-5.83,0-11.659c0-.076,0-.153,0-.229,0-.158-.061-.179-.183-.086-.284.215-.58.416-.853.645-.151.127-.239.143-.363-.027Q.6,10.707.047,9.993C-.072,9.84.064,9.8.141,9.741Q1.17,8.969,2.2,8.2,4.352,6.612,6.5,5.026a.5.5,0,0,0,.215-.451c-.006-1.239,0-2.478-.007-3.717,0-.251.063-.343.327-.338.721.016,1.444.014,2.165,0,.241,0,.3.083.3.309-.013.534-.006,1.069,0,1.6,0,.1-.054.238.04.284s.193-.076.277-.138Q11.271,1.5,12.72.423c.157-.116.328-.213.48-.335A.318.318,0,0,1,13.652.1c1.2.9,2.414,1.789,3.622,2.682Q20.8,5.4,24.335,8.01q1.167.863,2.342,1.715c.157.114.157.179.033.332-.326.4-.622.827-.931,1.242-.232.312-.255.312-.557.085-.224-.168-.453-.33-.682-.49-.067-.047-.137-.145-.216-.107-.1.048-.044.169-.046.257-.006.314,0,.628,0,.942q0,5.4,0,10.793c0,.387,0,.388-.4.388h-10.5m8.676-8.173h0q0-2.838,0-5.675a.43.43,0,0,0-.168-.4Q17.752,5.873,13.62,2.812a.332.332,0,0,0-.469.016Q9.065,5.865,4.97,8.891a.6.6,0,0,0-.269.552q.01,5.6.006,11.2c0,.353,0,.355.35.356H9.923c.356,0,.356,0,.356-.368,0-2.52,0-5.039-.005-7.559,0-.257.073-.331.33-.33,1.842.01,3.685.005,5.528.005.4,0,.4,0,.4.413,0,2.5,0,5.005,0,7.508,0,.257.075.336.332.334,1.6-.01,3.21,0,4.814-.005.384,0,.387,0,.387-.376q0-2.812,0-5.624m-6.075,2.771c0-.257-.109-.394-.321-.4-1.113,0,.312,1.462.321.4" transform="translate(0 0)" fill="#fff"/>
      </g>
    </g>
  </g>
</svg>
