<svg xmlns="http://www.w3.org/2000/svg" xmlns:xlink="http://www.w3.org/1999/xlink" width="95" height="79" viewBox="0 0 95 79">
  <defs>
    <clipPath id="clip-Open">
      <rect width="95" height="79"/>
    </clipPath>
  </defs>
  <g id="Open" clip-path="url(#clip-Open)">
    <g id="Group_5811" data-name="Group 5811" transform="translate(4694.5 -3724)">
      <path id="Path_8573" data-name="Path 8573" d="M83.674,14.583V52.907L43.711,72.889,1.25,52.907V14.583" transform="translate(-4689.962 3727.442)" fill="none" stroke="#fff" stroke-linecap="round" stroke-linejoin="round" stroke-width="2.5"/>
      <path id="Path_8574" data-name="Path 8574" d="M1.25,14.583,43.711,32.068,83.674,14.583" transform="translate(-4689.962 3727.442)" fill="none" stroke="#fff" stroke-linecap="round" stroke-linejoin="round" stroke-width="2.5"/>
      <line id="Line_11" data-name="Line 11" y2="40.822" transform="translate(-4646.251 3759.509)" fill="none" stroke="#fff" stroke-linecap="round" stroke-linejoin="round" stroke-width="2.5"/>
      <path id="Path_8575" data-name="Path 8575" d="M1.25,14.987,42.462,1.25,83.674,14.987" transform="translate(-4689.962 3727.038)" fill="none" stroke="#fff" stroke-linecap="round" stroke-linejoin="round" stroke-width="2.5"/>
      <line id="Line_12" data-name="Line 12" y2="16.515" transform="translate(-4647.5 3736.249)" fill="none" stroke="#fff" stroke-linecap="round" stroke-linejoin="round" stroke-width="2.5" stroke-dasharray="0.515 6.439"/>
      <path id="Path_8576" data-name="Path 8576" d="M52.34,38.575v2.865a2.248,2.248,0,0,0,3.165,2.051L71.78,36.214a2.248,2.248,0,0,0,1.329-2.051V31.3a2.246,2.246,0,0,0-3.164-2.051L53.67,36.524A2.246,2.246,0,0,0,52.34,38.575Z" transform="translate(-4688.414 3727.88)" fill="none" stroke="#fff" stroke-linecap="round" stroke-linejoin="round" stroke-width="2.5"/>
      <path id="Path_8577" data-name="Path 8577" d="M28.044,20.9l2.535-.88a1.39,1.39,0,0,0,.933-1.314V14.642a1.39,1.39,0,0,0-1.845-1.314l-10.8,3.777" transform="translate(-4689.428 3727.401)" fill="none" stroke="#fff" stroke-linecap="round" stroke-linejoin="round" stroke-width="2.5"/>
    </g>
  </g>
</svg>
