<svg xmlns="http://www.w3.org/2000/svg" xmlns:xlink="http://www.w3.org/1999/xlink" width="37" height="50" viewBox="0 0 37 50">
  <defs>
    <clipPath id="clip-path">
      <rect id="Rectangle_2861" data-name="Rectangle 2861" width="34.83" height="49.178" fill="#394037"/>
    </clipPath>
    <clipPath id="clip-PDF_Icon">
      <rect width="37" height="50"/>
    </clipPath>
  </defs>
  <g id="PDF_Icon" data-name="PDF Icon" clip-path="url(#clip-PDF_Icon)">
    <g id="Group_5817" data-name="Group 5817" transform="translate(1.085 0.822)">
      <g id="Group_5791" data-name="Group 5791" clip-path="url(#clip-path)">
        <path id="Path_8590" data-name="Path 8590" d="M13.709,159.139H1.356a3.853,3.853,0,0,1-.614-.026.794.794,0,0,1-.74-.868q0-5.59,0-11.18a.834.834,0,0,1,.749-.874,3.074,3.074,0,0,1,.577-.033q12.426,0,24.851,0a2.837,2.837,0,0,1,.469.022.766.766,0,0,1,.724.8c.014.252-.008.506-.008.759q0,5.174,0,10.348c0,.826-.218,1.05-1.05,1.051q-6.3,0-12.607,0m-2.65-6.48c0,.677,0,1.355,0,2.032,0,.39-.179,1.181.026,1.519.391.645,2.744.3,3.373.155a3.7,3.7,0,0,0,2.9-3.913,3.39,3.39,0,0,0-3.117-3.586c-.638-.079-2.8-.329-3.164.31-.194.34-.013,1.279-.013,1.655,0,.609,0,1.218,0,1.827m-8.194-.015c0,1.133.006,2.267,0,3.4,0,.3.108.411.4.4.519-.014,1.039-.015,1.557,0,.3.01.412-.087.4-.393-.019-.59.008-1.182-.012-1.772-.012-.34.1-.476.453-.465a7.447,7.447,0,0,0,1.661-.066,2.434,2.434,0,0,0,2.059-3.364,2.272,2.272,0,0,0-2.253-1.515c-1.278-.033-2.555-.106-3.835-.034-.322.018-.445.1-.439.437.018,1.121.007,2.243.007,3.364m16.073-.025h0c0,.89,0,1.781,0,2.671,0,.577-.146.956.4,1.162.348.131,1.58.146,1.815-.212.325-.5-.116-1.642.011-2.226.147-.671.452-.473,1.172-.475.411,0,1.52.235,1.779-.153.177-.265.122-1.369-.172-1.547-.4-.242-1.5-.005-2-.015-.48-.01-1.263-.278-.688-.914.367-.405,1.656-.189,2.152-.191.846,0,1.121.184,1.133-.722.011-.837.186-1.106-.7-1.163-.8-.051-1.6-.014-2.4,0-.345.006-2.1-.22-2.367.029s-.135.835-.136,1.2q0,1.279,0,2.558" transform="translate(0 -128.653)" fill="#394037"/>
        <path id="Path_8591" data-name="Path 8591" d="M54.025,25.609q0,8.72,0,17.44a3.66,3.66,0,0,1-.011.434.8.8,0,0,1-.844.765q-4.6,0-9.2,0c-.127,0-.291.038-.352-.115-.049-.123.061-.225.131-.321.3-.421.615-.835.914-1.259a.975.975,0,0,1,.9-.348c1.811,0,3.623,0,5.434,0,1.134-.005.955.1.955-.97q.006-15.685,0-31.37c0-.648,0-.649-.663-.65l-5.217,0c-.109,0-.218,0-.326,0-.672-.048-.958-.344-.959-1.014,0-1.809,0-3.618,0-5.427,0-.671-.031-.7-.689-.7H24.571c-.564,0-.615.054-.616.627q0,6.241,0,12.483c0,.667-.051.717-.721.719-.29,0-.58.008-.869,0-.362-.015-.518-.177-.545-.541-.006-.084,0-.169,0-.253q0-6.82,0-13.641c0-1.282.158-1.436,1.439-1.436Q34.523.006,45.789,0a1.792,1.792,0,0,1,1.378.571c2.119,2.147,4.261,4.272,6.4,6.4A1.484,1.484,0,0,1,54.033,8.1q-.012,8.756-.005,17.512Z" transform="translate(-19.203 0)" fill="#394037"/>
        <path id="Path_8592" data-name="Path 8592" d="M106.842,272.27a15.358,15.358,0,0,0,0,2.762c.146.75.942.5,1.6.493.376,0,1.829-.192,1.978.355s-1,1.633-1.3,2.033q-1.72,2.316-3.438,4.634c-.57.77-1.115,1.567-1.713,2.315-.557.7-1.046.873-1.66.125-1.287-1.569-2.429-3.288-3.64-4.918l-1.773-2.386c-.274-.368-1.395-1.433-1.014-1.944.306-.41,1.8-.168,2.251-.177,1.143-.024,1.21-.149,1.2-1.284q-.006-1.329,0-2.659a6.475,6.475,0,0,1,.123-2.579c.351-.71,1.159-.6,1.826-.576q1.666.05,3.333.006c.711-.019,1.78-.207,2.141.6.369.819.076,2.323.077,3.206" transform="translate(-84.34 -236.294)" fill="#394037"/>
        <path id="Path_8593" data-name="Path 8593" d="M21.791,274.109q0-2.569,0-5.138c0-.641.118-.749.769-.747.242,0,.483,0,.725,0,.529.005.643.114.647.633,0,.591,0,1.182,0,1.773q0,3.546,0,7.091c0,.536.04.58.575.581,1.884,0,3.768.013,5.651,0a1.259,1.259,0,0,1,1.211.618c.226.368.519.7.771,1.049.184.257.131.366-.184.383-.265.014-.531.007-.8.007q-4.148,0-8.3,0c-.766,0-1.069-.3-1.07-1.075q0-2.587,0-5.174Z" transform="translate(-19.182 -236.107)" fill="#394037"/>
        <path id="Path_8594" data-name="Path 8594" d="M109.828,186.061c0-.782-.391-2.217.8-1.935a1.72,1.72,0,0,1,1.171,1.885,1.9,1.9,0,0,1-1.054,1.876c-1.3.54-.922-.979-.922-1.826Z" transform="translate(-96.623 -162.047)" fill="#394037"/>
        <path id="Path_8595" data-name="Path 8595" d="M43.6,184.169c0-.483-.012-.55.413-.651a2.012,2.012,0,0,1,1.445.227c1.028,1.116-1.843,1.484-1.857.857,0-.144,0-.288,0-.433" transform="translate(-38.376 -161.509)" fill="#394037"/>
      </g>
    </g>
  </g>
</svg>
