<svg xmlns="http://www.w3.org/2000/svg" xmlns:xlink="http://www.w3.org/1999/xlink" width="95" height="79" viewBox="0 0 95 79">
  <defs>
    <clipPath id="clip-path">
      <rect id="Rectangle_2852" data-name="Rectangle 2852" width="60.474" height="53.088" fill="none" stroke="#fff" stroke-width="1"/>
    </clipPath>
    <clipPath id="clip-Pending">
      <rect width="95" height="79"/>
    </clipPath>
  </defs>
  <g id="Pending" clip-path="url(#clip-Pending)">
    <path id="Path_8573" data-name="Path 8573" d="M59.891,14.583V41.849L31.459,56.065,1.25,41.849V14.583" transform="translate(14.788 21.018)" fill="none" stroke="#fff" stroke-linecap="round" stroke-linejoin="round" stroke-width="2.5"/>
    <path id="Path_8574" data-name="Path 8574" d="M1.25,14.583,31.459,27.023,59.891,14.583" transform="translate(14.788 21.018)" fill="none" stroke="#fff" stroke-linecap="round" stroke-linejoin="round" stroke-width="2.5"/>
    <line id="Line_11" data-name="Line 11" y2="29.043" transform="translate(46.247 48.041)" fill="none" stroke="#fff" stroke-linecap="round" stroke-linejoin="round" stroke-width="2.5"/>
    <path id="Path_8575" data-name="Path 8575" d="M1.25,11.024,30.571,1.25l29.321,9.773" transform="translate(14.788 24.578)" fill="none" stroke="#fff" stroke-linecap="round" stroke-linejoin="round" stroke-width="2.5"/>
    <line id="Line_12" data-name="Line 12" y2="11.749" transform="translate(45.358 31.492)" fill="none" stroke="#fff" stroke-linecap="round" stroke-linejoin="round" stroke-width="2.5" stroke-dasharray="0.515 6.439"/>
    <g id="Group_5760" data-name="Group 5760" transform="translate(15.122 24.912)">
      <g id="Group_5759" data-name="Group 5759" clip-path="url(#clip-path)">
        <path id="Path_8576" data-name="Path 8576" d="M52.34,35.826v2.039a1.6,1.6,0,0,0,2.252,1.459l11.579-5.178a1.6,1.6,0,0,0,.946-1.459V30.648a1.6,1.6,0,0,0-2.251-1.459L53.286,34.367A1.6,1.6,0,0,0,52.34,35.826Z" transform="translate(-13.974 -7.755)" fill="none" stroke="#fff" stroke-linecap="round" stroke-linejoin="round" stroke-width="2.5"/>
        <path id="Path_8577" data-name="Path 8577" d="M25.4,18.694l1.8-.626a.989.989,0,0,0,.664-.935V14.24a.989.989,0,0,0-1.313-.935l-7.686,2.687" transform="translate(-5.036 -3.538)" fill="none" stroke="#fff" stroke-linecap="round" stroke-linejoin="round" stroke-width="2.5"/>
      </g>
    </g>
    <line id="Line_34" data-name="Line 34" y1="11.209" transform="translate(32.625 21.884)" fill="none" stroke="#fff" stroke-linecap="round" stroke-linejoin="round" stroke-width="2.5"/>
    <line id="Line_31" data-name="Line 31" y2="17.14" transform="translate(51.678 12.308)" fill="none" stroke="#fff" stroke-linecap="round" stroke-linejoin="round" stroke-width="2.5"/>
    <line id="Line_32" data-name="Line 32" y2="17.922" transform="translate(45.327 18.542)" fill="none" stroke="#fff" stroke-linecap="round" stroke-linejoin="round" stroke-width="2.5"/>
    <line id="Line_33" data-name="Line 33" y2="11.373" transform="translate(38.976 15.953)" fill="none" stroke="#fff" stroke-linecap="round" stroke-linejoin="round" stroke-width="2.5"/>
    <line id="Line_30" data-name="Line 30" y1="8.494" transform="translate(58.029 22.658)" fill="none" stroke="#fff" stroke-linecap="round" stroke-linejoin="round" stroke-width="2.5"/>
    <line id="Line_37" data-name="Line 37" y1="1.498" transform="translate(58.029 15.431)" fill="none" stroke="#fff" stroke-linecap="round" stroke-linejoin="round" stroke-width="2.5" stroke-dasharray="0.511 6.136"/>
    <line id="Line_36" data-name="Line 36" y1="1.498" transform="translate(26.273 16.205)" fill="none" stroke="#fff" stroke-linecap="round" stroke-linejoin="round" stroke-width="2.5" stroke-dasharray="0.511 6.136"/>
    <line id="Line_35" data-name="Line 35" y1="6.895" transform="translate(26.273 23.489)" fill="none" stroke="#fff" stroke-linecap="round" stroke-linejoin="round" stroke-width="2.5"/>
    <path id="Path_8580" data-name="Path 8580" d="M.31,216.577c0-.309,0-.617-.011-.925-.006-.141.047-.174.172-.174.868,0,1.735,0,2.6,0q5.307,0,10.615,0c.467,0,.935.018,1.4.018.279,0,.558-.023.838-.018.1,0,.136.026.133.132-.009.323-.007.646-.01.969Z" transform="translate(65.23 -187.37)" fill="#fff" stroke="#fff" stroke-width="1"/>
    <path id="Path_8581" data-name="Path 8581" d="M15.788,0c0,.19.12.949-.032,1.07s-.786.009-.988.011c-.725.006-1.451.019-2.176.016q-2.352-.009-4.7,0Q5.609,1.1,3.33,1.1L1.014,1.086c-.195,0-.787.107-.946-.039C-.07.919.045.189.047,0Z" transform="translate(65.493 3.165)" fill="#fff" stroke="#fff" stroke-width="1"/>
    <path id="Path_8582" data-name="Path 8582" d="M16.417,36.715H9.85c-.224,0-.234-.015-.216-.24.023-.289.008-.578.006-.867,0-.414-.007-.828,0-1.241.007-.242-.024-.481-.02-.722.009-.622-.007-1.245.028-1.865a4.92,4.92,0,0,1,.518-1.913,9.752,9.752,0,0,1,2.317-2.859,14.438,14.438,0,0,0,1.282-1.231,1.226,1.226,0,0,0,.1-.127A.542.542,0,0,0,13.887,25a2.926,2.926,0,0,0-.437-.5c-.65-.624-1.345-1.2-1.95-1.873A7.9,7.9,0,0,1,10.2,20.8a5.072,5.072,0,0,1-.55-2.154q-.015-1.351-.017-2.7c0-.626.013-1.252.013-1.879,0-.131.039-.174.173-.174q6.611,0,13.221,0c.131,0,.174.037.174.171,0,1.577.011,3.154-.009,4.73a4.54,4.54,0,0,1-.442,1.785,8.261,8.261,0,0,1-1.7,2.36c-.521.536-1.1,1.016-1.636,1.532a3.232,3.232,0,0,0-.422.475.562.562,0,0,0,0,.721,4.655,4.655,0,0,0,.529.572c.6.574,1.241,1.1,1.8,1.718a7.963,7.963,0,0,1,1.443,2.118,4.8,4.8,0,0,1,.43,1.933q0,2.111,0,4.222c0,.091,0,.183.011.274.013.183-.011.212-.192.212H16.417m.01-1.115h5.511c.111,0,.19,0,.189-.156-.005-1.1-.007-2.208,0-3.312a4.133,4.133,0,0,0-.558-2.069A9.369,9.369,0,0,0,19.7,27.855a17.1,17.1,0,0,1-1.424-1.375,1.714,1.714,0,0,1-.462-1.435,2.031,2.031,0,0,1,.486-.94,13.887,13.887,0,0,1,1.279-1.234,10.613,10.613,0,0,0,1.878-2.13,4.093,4.093,0,0,0,.668-2.139c.007-1.147,0-2.3,0-3.443,0-.112-.035-.163-.149-.152-.043,0-.087,0-.13,0H10.922c-.19,0-.191,0-.192.193,0,1.051.01,2.1,0,3.153a4.485,4.485,0,0,0,.855,2.665A13.273,13.273,0,0,0,13.643,23.2a8.752,8.752,0,0,1,1.07,1.094,1.562,1.562,0,0,1,.329,1.3,2,2,0,0,1-.467.885,22.031,22.031,0,0,1-1.6,1.55,10.143,10.143,0,0,0-1.511,1.726,4.19,4.19,0,0,0-.737,2.264c0,1.114,0,2.228,0,3.341,0,.235,0,.237.241.237h5.453" transform="translate(56.984 -9.118)" fill="#fff" stroke="#fff" stroke-width="1"/>
    <path id="Path_8583" data-name="Path 8583" d="M28.886,147.373q-2.5,0-5,0c-.112,0-.145-.024-.142-.147.011-.54.03-1.081,0-1.62a1.943,1.943,0,0,1,.592-1.47,9.422,9.422,0,0,1,1.738-1.384c.645-.431,1.327-.806,1.967-1.246a7.555,7.555,0,0,0,.8-.6c.047-.042.087-.054.138-.01a20.152,20.152,0,0,0,2.335,1.575,10.906,10.906,0,0,1,2.155,1.646,2.024,2.024,0,0,1,.587,1.089,1.279,1.279,0,0,1,.017.187q0,.875,0,1.749c0,.226,0,.228-.235.228H28.886Z" transform="translate(44.503 -121.404)" fill="#d04a02" stroke="#d04a02" stroke-width="1"/>
    <path id="Path_8584" data-name="Path 8584" d="M34.061,51.95c-.206,1.675-1.83,2.92-3.04,3.916-.344.284-.691.564-1.03.855s-.628.648-.964.931c-.191.161-.214.031-.388-.147-.135-.138-.275-.273-.416-.4-.354-.329-.725-.64-1.1-.948-1.238-1.027-2.861-2.186-3.306-3.818-.022-.079-.148-.384-.056-.459s.411.146.486.178c.446.2.893.389,1.344.574a20.856,20.856,0,0,0,2.581.923,4.765,4.765,0,0,0,2.893-.474c.973-.359,1.931-.767,2.874-1.2.114-.052.124.01.119.069" transform="translate(44.509 -42.693)" fill="#d04a02" stroke="#d04a02" stroke-width="1"/>
    <line id="Line_38" data-name="Line 38" y1="1.498" transform="translate(32.634 16.205)" fill="none" stroke="#fff" stroke-linecap="round" stroke-linejoin="round" stroke-width="2.5" stroke-dasharray="0.511 6.136"/>
    <line id="Line_39" data-name="Line 39" y1="1.498" transform="translate(38.995 10.753)" fill="none" stroke="#fff" stroke-linecap="round" stroke-linejoin="round" stroke-width="2.5" stroke-dasharray="0.511 6.136"/>
    <line id="Line_40" data-name="Line 40" y1="1.498" transform="translate(38.995 5.301)" fill="none" stroke="#fff" stroke-linecap="round" stroke-linejoin="round" stroke-width="2.5" stroke-dasharray="0.511 6.136"/>
    <line id="Line_41" data-name="Line 41" y1="1.498" transform="translate(45.355 12.57)" fill="none" stroke="#fff" stroke-linecap="round" stroke-linejoin="round" stroke-width="2.5" stroke-dasharray="0.511 6.136"/>
    <line id="Line_42" data-name="Line 42" y1="1.498" transform="translate(51.716 6.21)" fill="none" stroke="#fff" stroke-linecap="round" stroke-linejoin="round" stroke-width="2.5" stroke-dasharray="0.511 6.136"/>
    <line id="Line_43" data-name="Line 43" y1="1.498" transform="translate(51.716 1.667)" fill="none" stroke="#fff" stroke-linecap="round" stroke-linejoin="round" stroke-width="2.5" stroke-dasharray="0.511 6.136"/>
  </g>
</svg>
